<svg xmlns="http://www.w3.org/2000/svg" viewBox="0 0 104.5 208.2"><defs><style>.cls-1{fill:#7c8d7f;}.cls-2{fill:#a8b6ab;}.cls-3{fill:#ddd3cc;}.cls-4{fill:none;stroke:#434342;stroke-miterlimit:10;stroke-width:0.14px;}</style></defs><g id="Capa_2" data-name="Capa 2"><g id="Office_Furniture_color" data-name="Office Furniture color"><g id="Ergonomic_chair" data-name="Ergonomic chair"><path class="cls-1" d="M99.63,198.52a4.76,4.76,0,1,1-.9.08A5.47,5.47,0,0,1,99.63,198.52Z"/><path class="cls-1" d="M102.69,41.67S106,46.76,100.56,48c-4.38,1-6.69,1.61-6.69,1.61v0a2.93,2.93,0,0,0,2.07-2.91s4,.08,4.48-1.76c.23-.93-.52-1.4-1.32-1.64L88.94,28.49a.6.6,0,0,1-.09-.15c-.06-.19-.13-.4-.19-.63a1.63,1.63,0,0,1,.72-1.54l.71-.48a1.53,1.53,0,0,1,2.12.41Z"/><path class="cls-2" d="M99.1,43.27c.8.24,1.55.71,1.32,1.64-.44,1.84-4.48,1.76-4.48,1.76a2.93,2.93,0,0,1-2.07,2.91l-.15.05c-7.27,2.16-8.94,5.93-8.94,5.93s-6.89,22.79-10.16,33a26.43,26.43,0,0,0-1.36,8.82,22.29,22.29,0,0,0,.35,3.46A14.55,14.55,0,0,0,75,105.05s5.92,14.35,9.71,24.09c.8,2.05,1.5,3.88,2,5.35l.09.24c3,8.28-2.92,10.07-2.92,10.07l-13,4.78-2.69.23L54.37,151h-.15a1.8,1.8,0,0,1-1.77-1.48l-.1-.57a2,2,0,0,1,1.59-2.31l10.62-2,4.4-.82,1-.19,11.55-4.37-2.11-5.7-3.34-9,0,0L70.9,110.6s-4.08-10-1-19.24,11.8-37.29,11.8-37.29S86.65,42,97.53,43A6.21,6.21,0,0,1,99.1,43.27Z"/><polygon class="cls-2" points="44.41 182.7 50.58 174.65 50.58 173.21 59.86 173.21 98.69 192.88 98.69 198.34 95.25 198.34 95.25 196.32 59.43 181.86 59.43 194.89 58.06 194.89 51.01 194.89 49.61 194.89 49.61 184.86 49.59 184.84 39.8 195.66 39.8 198.18 36.75 198.18 36.75 192.7 44.41 182.7"/><path class="cls-1" d="M88.85,28.34a4,4,0,0,0,.5,1c-.68.95-1.56.06-1.56.06-4.41-10.16-.07-29-.07-29s1.19-1,1.81.23c-2.69,10.25-2.15,22.36-.87,27A1.59,1.59,0,0,0,88.85,28.34Z"/><path class="cls-3" d="M88.66,27.71c.06.23.13.44.19.63A1.59,1.59,0,0,1,88.66,27.71Z"/><path class="cls-1" d="M84.8,129.1c3.85-1.78,6.57,4,2,5.34l-.12.05c-.53-1.47-1.23-3.3-2-5.35Z"/><path class="cls-2" d="M87.72.46s-4.34,18.82.07,29C87.75,29.44,75.2,17,87.72.46Z"/><path class="cls-1" d="M79.43,133.59l2.11,5.7L70,143.66l-1,.19v0a12.66,12.66,0,0,0-.8-2.42l-.18-.28.82-.55v-2.73h4.32a6.76,6.76,0,0,0,6.26-4.22Z"/><path class="cls-1" d="M76.09,124.59l3.34,9-.05,0a6.76,6.76,0,0,1-6.26,4.22H57.9v0l-.29-3.29L55.91,124H73.12a6.83,6.83,0,0,1,2.92.66Z"/><path class="cls-2" d="M73.39,97.33c2.13-.22,2.36,3.38.35,3.45l-.13,0a22.29,22.29,0,0,1-.35-3.46Z"/><path class="cls-1" d="M69,143.81v0l-4.4.82-.21-1.15L68,141.11l.18.28A12.66,12.66,0,0,1,69,143.81Z"/><path class="cls-2" d="M68.8,137.85v2.71l-.82.55-3.63,2.41H42.68l-10.1-1.39h0a2.72,2.72,0,0,0-5.16-.69l-.1,0-4.73-.65-1-.14a1,1,0,0,1-.84-1v-1.82H50.45v2.55a.87.87,0,0,0,.87.87h6a.83.83,0,0,0,.82-.9l-.22-2.52H68.8Z"/><path class="cls-1" d="M68.18,149.81v0a8.26,8.26,0,0,1-1.88,2.46H54.22V151h.15Z"/><path class="cls-1" d="M67.23,101.54v.7a1.89,1.89,0,0,1-1.89,1.89H30.17a1.88,1.88,0,0,1-1.88-1.89v-.7a1.89,1.89,0,0,1,1.88-1.89H65.34A1.89,1.89,0,0,1,67.23,101.54Z"/><path class="cls-1" d="M64.35,143.52l.21,1.15-10.62,2A2,2,0,0,0,52.35,149l.1.57A1.8,1.8,0,0,0,54.22,151v1.3H43.93l-21.39-8.91h3.15V141.6H22.54v-.85l4.73.65.1,0a2.72,2.72,0,1,0,5.2,1.13,2.12,2.12,0,0,0,0-.44h0l10.1,1.39Zm-27,1.68a1.7,1.7,0,1,0-1.83,1.55A1.69,1.69,0,0,0,37.39,145.2Z"/><polygon class="cls-1" points="59.86 171.26 59.86 173.21 50.58 173.21 49.39 173.21 49.39 171.26 52.18 171.26 52.18 171.27 56.82 171.27 56.82 171.26 59.86 171.26"/><path class="cls-2" d="M50.45,137.83V136.3l7.16-1.79.29,3.29v0h0l.22,2.52a.83.83,0,0,1-.82.9h-6a.87.87,0,0,1-.87-.87Z"/><polygon class="cls-1" points="58.06 194.9 58.06 204.97 51.01 204.97 51.01 194.89 58.06 194.89 58.06 194.9"/><path class="cls-2" d="M55.91,124l1.7,10.55-7.16,1.79s-1.6-6.12-3.22-12.37c-1.12-4.3-2.26-8.66-2.9-11.13-1.56-6-3.95-6.41-3.95-6.41v-2.26H55.22v2.78c-2.53,1-1.49,3.58-1.49,3.58Z"/><rect class="cls-3" x="52.18" y="171.26" width="4.64"/><rect class="cls-1" x="52.18" y="152.55" width="4.64" height="18.71"/><polygon class="cls-2" points="50.58 173.21 50.58 174.65 44.41 182.7 4.09 196.2 3.16 198.54 0.35 198.54 0.35 193.21 49.39 173.21 50.58 173.21"/><path class="cls-1" d="M20.69,137.83h-3a6.76,6.76,0,0,1-6.76-6.76v-.36A6.76,6.76,0,0,1,17.65,124H47.16l.07,0c1.62,6.25,3.22,12.37,3.22,12.37v1.53Z"/><path class="cls-1" d="M41.56,198.52a4.81,4.81,0,1,1-4.81,4.8v-.12a4.79,4.79,0,0,1,3.09-4.36A4.69,4.69,0,0,1,41.56,198.52Z"/><path class="cls-1" d="M39.81,198.73l0,.11a4.79,4.79,0,0,0-3.09,4.36v-5h3.06Z"/><path class="cls-2" d="M35.84,143.37A1.7,1.7,0,1,1,34,144.92,1.69,1.69,0,0,1,35.84,143.37Z"/><path class="cls-2" d="M32.54,142.14a2.12,2.12,0,0,1,0,.44,2.76,2.76,0,1,1,0-.44Z"/><polygon class="cls-2" points="25.69 141.6 25.69 143.39 22.54 143.39 18.62 143.39 18.62 141.6 22.52 141.6 22.54 141.6 25.69 141.6"/><path class="cls-1" d="M4.88,198.52a4.81,4.81,0,1,1-4.81,4.8,4.66,4.66,0,0,1,.3-1.67,4.84,4.84,0,0,1,2.85-2.84A4.79,4.79,0,0,1,4.88,198.52Z"/><path class="cls-1" d="M3.16,198.55l.06.26a4.84,4.84,0,0,0-2.85,2.84h0v-3.09Z"/><path class="cls-4" d="M40.38,104.13H30.17a1.88,1.88,0,0,1-1.88-1.89v-.7a1.89,1.89,0,0,1,1.88-1.89H65.34a1.89,1.89,0,0,1,1.89,1.89v.7a1.89,1.89,0,0,1-1.89,1.89h-25Z"/><path class="cls-4" d="M50.45,137.83H17.65a6.76,6.76,0,0,1-6.76-6.76v-.36A6.76,6.76,0,0,1,17.65,124H47.16"/><path class="cls-4" d="M79.38,133.61a6.76,6.76,0,0,1-6.26,4.22H57.9"/><path class="cls-4" d="M55.94,124H73.12a6.83,6.83,0,0,1,2.92.66"/><polygon class="cls-4" points="56.82 171.26 56.82 171.27 52.18 171.27 52.18 171.26 52.18 152.55 56.82 152.55 56.82 171.26"/><polygon class="cls-4" points="59.86 173.21 50.58 173.21 49.39 173.21 49.39 171.26 52.18 171.26 56.82 171.26 59.86 171.26 59.86 173.21"/><path class="cls-4" d="M40.38,104.15v2.24s2.39.37,3.95,6.41c.64,2.47,1.78,6.83,2.9,11.13,1.62,6.25,3.22,12.37,3.22,12.37l7.16-1.79L55.91,124l-2.18-13.47s-1-2.61,1.49-3.58v-2.76"/><line class="cls-4" x1="57.9" y1="137.8" x2="57.61" y2="134.51"/><path class="cls-4" d="M50.45,136.3v4.08a.87.87,0,0,0,.87.87h6a.83.83,0,0,0,.82-.9l-.22-2.52h0v0"/><polyline class="cls-4" points="32.58 142.13 42.68 143.53 64.35 143.53 67.97 141.11 68.8 140.56 68.8 137.85"/><path class="cls-4" d="M20.69,137.78v1.87a1,1,0,0,0,.84,1l1,.14,4.73.65"/><path class="cls-4" d="M32.54,142.14a2.12,2.12,0,0,1,0,.44,2.76,2.76,0,1,1,0-.44Z"/><path class="cls-4" d="M37.39,145.2a1.7,1.7,0,1,1-1.55-1.83A1.69,1.69,0,0,1,37.39,145.2Z"/><path class="cls-4" d="M69,143.81a12.66,12.66,0,0,0-.8-2.42"/><path class="cls-4" d="M22.54,143.39l21.39,8.91H66.31a8.26,8.26,0,0,0,1.88-2.46"/><line class="cls-4" x1="22.54" y1="140.82" x2="22.54" y2="141.6"/><polyline class="cls-4" points="22.52 141.6 22.54 141.6 25.69 141.6 25.69 143.39 22.54 143.39 18.62 143.39 18.62 141.6 22.52 141.6"/><polyline class="cls-4" points="49.39 173.21 0.35 193.21 0.35 198.54 3.16 198.54 4.09 196.2 44.41 182.7 44.66 182.62"/><polyline class="cls-4" points="50.58 174.65 44.41 182.7 36.75 192.7 36.75 198.18 39.8 198.18 39.8 195.66 49.59 184.84 52.47 181.65"/><polyline class="cls-4" points="49.61 184.86 49.61 194.89 51.01 194.89 58.06 194.89 59.43 194.89 59.43 181.86 95.25 196.32 95.25 198.34 98.69 198.34 98.69 192.88 59.86 173.21"/><path class="cls-4" d="M39.84,198.84a4.69,4.69,0,0,1,1.72-.32,4.81,4.81,0,1,1-4.81,4.8v-.12A4.79,4.79,0,0,1,39.84,198.84Z"/><path class="cls-4" d="M98.73,198.6a5.47,5.47,0,0,1,.9-.08,4.76,4.76,0,1,1-.9.08Z"/><path class="cls-4" d="M3.22,198.81a4.81,4.81,0,1,1-3.15,4.51,4.66,4.66,0,0,1,.3-1.67A4.84,4.84,0,0,1,3.22,198.81Z"/><line class="cls-4" x1="0.35" y1="198.55" x2="0.35" y2="201.64"/><line class="cls-4" x1="36.75" y1="198.18" x2="36.75" y2="203.2"/><line class="cls-4" x1="39.81" y1="198.18" x2="39.81" y2="198.73"/><line class="cls-4" x1="95.25" y1="198.34" x2="95.25" y2="201.19"/><polyline class="cls-4" points="58.06 194.9 58.06 204.97 51.01 204.97 51.01 194.89 51.01 194.87"/><path class="cls-4" d="M76.07,124.54,70.9,110.6s-4.08-10-1-19.24,11.8-37.29,11.8-37.29S86.65,42,97.53,43a6.21,6.21,0,0,1,1.57.25c.8.24,1.55.71,1.32,1.64-.44,1.84-4.48,1.76-4.48,1.76a2.93,2.93,0,0,1-2.07,2.91l-.15.05c-7.27,2.16-8.94,5.93-8.94,5.93s-6.89,22.79-10.16,33a26.43,26.43,0,0,0-1.36,8.82,22.29,22.29,0,0,0,.35,3.46A14.55,14.55,0,0,0,75,105.05s5.92,14.35,9.71,24.09c.8,2.05,1.5,3.88,2,5.35l.09.24c3,8.28-2.92,10.07-2.92,10.07l-13,4.78-2.69.23L54.37,151h-.15a1.8,1.8,0,0,1-1.77-1.48l-.1-.57a2,2,0,0,1,1.59-2.31l10.62-2,4.4-.82,1-.19,11.55-4.37-2.11-5.7-3.34-9,0,0"/><path class="cls-4" d="M84.8,129.1c3.85-1.78,6.57,4,2,5.34"/><path class="cls-4" d="M73.39,97.33c2.13-.22,2.36,3.38.35,3.45"/><path class="cls-4" d="M99.19,43.39l-.09-.12L88.94,28.49a.6.6,0,0,1-.09-.15,1.59,1.59,0,0,1-.19-.63,1.63,1.63,0,0,1,.72-1.54l.71-.48a1.53,1.53,0,0,1,2.12.41l10.48,15.57S106,46.76,100.56,48c-4.38,1-6.69,1.61-6.69,1.61"/><path class="cls-4" d="M87.72.46s-4.34,18.82.07,29"/><path class="cls-4" d="M89.35,29.38c-.68.95-1.56.06-1.56.06S75.2,17,87.72.46c0,0,1.19-1,1.81.23"/><path class="cls-4" d="M89.53.69c-2.69,10.25-2.15,22.36-.87,27,.06.23.13.44.19.63a4,4,0,0,0,.5,1"/></g></g></g></svg>