<svg xmlns="http://www.w3.org/2000/svg" viewBox="0 0 314.94 115.85"><defs><style>.cls-1{fill:#3a4e56;}.cls-2{fill:none;stroke:#000;stroke-linecap:round;stroke-linejoin:round;stroke-width:0.14px;}</style></defs><g id="Capa_2" data-name="Capa 2"><g id="Office_Furniture_color" data-name="Office Furniture color"><g id="Large_desk" data-name="Large desk"><polygon class="cls-1" points="12.7 3.73 5.95 3.73 0.07 3.73 0.07 0.07 314.87 0.07 314.87 3.73 306.05 3.73 299.3 3.73 12.7 3.73"/><polygon class="cls-1" points="306.05 3.73 306.05 115.78 302.51 115.78 299.3 3.73 306.05 3.73"/><polygon class="cls-1" points="12.7 3.73 9.48 115.78 5.95 115.78 5.95 3.73 12.7 3.73"/><polygon class="cls-2" points="5.95 3.73 0.07 3.73 0.07 0.07 314.87 0.07 314.87 3.73 306.05 3.73 299.3 3.73 12.7 3.73 5.95 3.73"/><polyline class="cls-2" points="12.7 3.71 12.7 3.73 9.48 115.78 5.95 115.78 5.95 3.73 5.95 3.71"/><polyline class="cls-2" points="299.3 3.71 299.3 3.73 302.51 115.78 306.05 115.78 306.05 3.73 306.05 3.71"/></g></g></g></svg>