<svg xmlns="http://www.w3.org/2000/svg" viewBox="0 0 94.64 138.32"><defs><style>.cls-1{fill:#d4d9d9;}.cls-2{fill:#ef8860;}.cls-3,.cls-4{fill:none;stroke-linecap:round;stroke-linejoin:round;stroke-width:0.14px;}.cls-3{stroke:#000;}.cls-4{stroke:#010101;}</style></defs><g id="Capa_2" data-name="Capa 2"><g id="Office_Furniture_color" data-name="Office Furniture color"><g id="orange_office_chair" data-name="orange office chair"><path class="cls-1" d="M82.94,30.23A4.21,4.21,0,0,0,82.51,32a24.17,24.17,0,0,0,0,4.05c.12,1.78.39,4.32.89,8.41.3,2.44.72,5.8,1.17,9.33.6,4.67,1.24,9.65,1.71,13.27.32,2.4.55,4.2.64,4.92,0,.21,0,.33,0,.33s1,3.19-4.52,2.69l-7.26-2.06-2.64-.74a37.09,37.09,0,0,0-6.31-.57l-22.47,0-35.27,0H4.22v1l-.5-.14c-1.89-.5-2.13-.9-2.11-1.6,0-1,1.27-1.15,1.27-1.15v0l.33,0H68.15a33.17,33.17,0,0,1,9.31,1.72c2.09.65,3.28,1.19,4.3,1.47h0A5.39,5.39,0,0,0,85,72.73l0-.3-.72-5.7v0l-1.63-13L80.36,36v0a16.33,16.33,0,0,1,.11-5.08,10.75,10.75,0,0,1,.44-1.67c.78-2.06,3-1,3-1l8.28,2.61,1.94.61c1.51,2.56-1.89,2.28-1.89,2.28h-.11c0-.19,0-.37,0-.56h0L83.07,30.3Z"/><path class="cls-2" d="M80,.1S92.56-1,92.47,10.74c0,1.89,0,4.44-.06,7.41h-.19L22,17.89a29.81,29.81,0,0,1-.12-7c.32-2.94.51-4.68,1.76-6.39C25.5,2,28.35,1.23,30.39.67A17.16,17.16,0,0,1,35.9.1Z"/><path class="cls-2" d="M92.22,18.15h.19c0,3.69-.09,8.05-.17,12.67h0L84,28.22s-2.27-1-3,1a10.75,10.75,0,0,0-.44,1.67A16.33,16.33,0,0,0,80.36,36v0h0l-59.91-.08a20.13,20.13,0,0,1-.36-2.29c-.08-.69-.14-1.42-.18-2.2-.05-1.19-.06-2.47,0-3.77A30.54,30.54,0,0,1,22,17.89Z"/><path class="cls-2" d="M92.2,33.15h0c0,.19,0,.37,0,.56,0,.76,0,1.53,0,2.29H82.5a24.17,24.17,0,0,1,0-4.05,4.21,4.21,0,0,1,.43-1.72l.13.07Z"/><path class="cls-2" d="M92.06,36h.08c-.13,6-.3,12.21-.56,17.74h-7c-.45-3.53-.87-6.89-1.17-9.33-.5-4.09-.77-6.63-.89-8.41Z"/><path class="cls-2" d="M91.58,53.75a144.38,144.38,0,0,1-1.36,16.16,9.86,9.86,0,0,0-2.5-2.27A5.31,5.31,0,0,0,86.3,67h0c-.47-3.62-1.11-8.6-1.71-13.27h7Z"/><path class="cls-2" d="M87.72,67.64a9.86,9.86,0,0,1,2.5,2.27,6.63,6.63,0,0,1-3.31,2c-.09-.72-.32-2.52-.64-4.92h0A5.31,5.31,0,0,1,87.72,67.64Z"/><path class="cls-1" d="M88.88,134a7.47,7.47,0,0,1-.11,1.26,4.56,4.56,0,0,1-1.21,2.62,1.07,1.07,0,0,1-.73.26l-3.51-.06c1.18,0,2.14-1.85,2.14-4.15s-.88-4-2-4.14l1.93,0h1.85C88.36,130.59,88.88,132.41,88.88,134Z"/><polygon class="cls-1" points="85.55 122.74 85.55 128.77 85.4 128.77 83.03 128.77 82.89 128.77 82.89 125.1 71.46 121.5 71.46 121.51 52.6 111.06 52.6 110.22 52.61 110.22 85.55 122.74"/><path class="cls-2" d="M85.4,129.81v0l-1.93,0H83v-1H85.4Z"/><path class="cls-2" d="M83.47,129.81c1.11.16,2,1.95,2,4.14s-1,4.15-2.14,4.15-2.15-1.85-2.15-4.15.89-4,2-4.14Z"/><path class="cls-2" d="M84.94,72.43h0a26.61,26.61,0,0,1-3.14.41h0c-1-.28-2.21-.82-4.3-1.47a33.17,33.17,0,0,0-9.31-1.72H3.22l-.33,0A3.15,3.15,0,0,1,.07,66.5a3.16,3.16,0,0,1,3.15-3.15h65s6,.35,8.89,2.55c2,1.53,4.55.73,7.14.83Z"/><path class="cls-2" d="M84.22,66.7v0c-2.59-.1-5.1.7-7.14-.83-2.94-2.2-8.89-2.55-8.89-2.55H16.37v0a20.77,20.77,0,0,1,.33-4.48,21.63,21.63,0,0,1,1.64-5.11H82.59Z"/><path class="cls-2" d="M80.36,36l2.23,17.74H18.34a28.57,28.57,0,0,1-.12-11,26,26,0,0,1,2.23-6.77L80.36,36Z"/><path class="cls-2" d="M75.18,72.89v0H48.35v-.48a20.32,20.32,0,0,0-4.59-.5v-.39l22.47,0a37.09,37.09,0,0,1,6.31.57Z"/><path class="cls-1" d="M74,131a4.38,4.38,0,0,1,1.19,3,4.08,4.08,0,1,1-4.07-4.26h.1a3.9,3.9,0,0,1,2.34.86A4,4,0,0,1,74,131Zm.47,3a3.36,3.36,0,1,0-3.35,3.51A3.43,3.43,0,0,0,74.48,134Z"/><path class="cls-2" d="M71.13,130.48A3.51,3.51,0,1,1,67.77,134,3.43,3.43,0,0,1,71.13,130.48Z"/><path class="cls-1" d="M52.61,111.06l18.85,10.45,2.19,1.21,0,6H70.75v-3.76l-18.5-8-2.82-1.22a23.85,23.85,0,0,0-.06-2.76c-.16-3.51,1.8-2.7,1.8-2.7Z"/><path class="cls-2" d="M73.59,128.77v1.78l0,0a3.9,3.9,0,0,0-2.34-.86v-1h2.36Z"/><path class="cls-2" d="M41.73,110.12v-.57l1.17-2h8.77l.94,2v1.53l-1.44-.8s-2-.81-1.8,2.7a23.85,23.85,0,0,1,.06,2.76l-.06,0s0,.15.06,0l2.82,1.22,0,0-.64,1.23H42.82l-.39-.67,3.37-1.63v-4.24a1.57,1.57,0,0,0-2-1.36l-2.06,1.33,0,0Z"/><polygon class="cls-1" points="51.69 72.94 51.69 77.45 50.79 79.08 49.42 79.08 48.38 79.08 48.35 79.08 48.35 72.93 48.35 72.93 51.69 72.93 51.69 72.94"/><path class="cls-1" d="M50.1,131a4.34,4.34,0,0,1,1.2,3,4.08,4.08,0,1,1-8.15,0,4.39,4.39,0,0,1,.6-2.22,4.1,4.1,0,0,1,2.32-1.87,4,4,0,0,1,4,1.08Zm.48,3a3.36,3.36,0,1,0-3.36,3.51A3.43,3.43,0,0,0,50.58,134Z"/><polygon class="cls-2" points="50.77 92.38 50.77 107.55 43.67 107.55 43.67 92.38 45.15 92.38 49.42 92.38 50.77 92.38"/><polygon class="cls-2" points="50.72 118.25 50.72 119.58 47.38 119.58 47.38 119.54 47.38 118.21 50.72 118.21 50.72 118.25"/><path class="cls-2" d="M47.22,130.48A3.51,3.51,0,1,1,43.86,134,3.43,3.43,0,0,1,47.22,130.48Z"/><path class="cls-1" d="M49.42,92.29v.09H45.15v-11a15.42,15.42,0,0,0,3.21-.66V79.09h1.07v13.2Z"/><path class="cls-1" d="M38.76,76.43v-4a24.56,24.56,0,0,1,5-.5,20.32,20.32,0,0,1,4.59.5v8.22a36.92,36.92,0,0,0-9.59,0Z"/><polygon class="cls-2" points="47.38 118.21 47.38 119.54 47.38 119.58 43.91 119.58 43.71 119.58 43.71 118.21 47.38 118.21"/><path class="cls-1" d="M47.38,119.57l-.78,4.74c-1.88,2.07-3.47-.26-3.47-.26l.77-4.46v0Z"/><path class="cls-1" d="M46.6,124.31l-.29,4.4h-3l-.18-4.66S44.72,126.38,46.6,124.31Z"/><path class="cls-2" d="M46.07,128.77v1.13a4.1,4.1,0,0,0-2.32,1.87l0,0v-3h2.37Z"/><path class="cls-1" d="M42.43,117.54l-15,7.31c-.16-2.73-3.19-1.93-3.19-1.93l5.45-3.5,12.08-7.78,2.06-1.33a1.57,1.57,0,0,1,2,1.36v4.24Z"/><path class="cls-1" d="M48.35,80.67a15.92,15.92,0,0,1-9.59,0A36.92,36.92,0,0,1,48.35,80.67Z"/><path class="cls-2" d="M43.76,71.56V72a24.56,24.56,0,0,0-5,.5v.48H12.52l-4-1.36v0Z"/><polygon class="cls-1" points="41.73 111.61 41.75 111.64 29.67 119.42 29.65 119.39 10.06 125.18 10.06 128.7 9.89 128.7 7.4 128.7 7.4 122.74 41.73 110.12 41.73 111.61"/><path class="cls-1" d="M38.76,75v1.42H13.81c-2,0-.7,2.73-.7,2.73l-1.23.1v0s-1.2-2.89.24-3.92a1.74,1.74,0,0,1,.66-.29C15.16,74.45,38.12,75,38.76,75Z"/><path class="cls-1" d="M28.84,134a8.68,8.68,0,0,1-.1,1.26,4.56,4.56,0,0,1-1.22,2.62,1.07,1.07,0,0,1-.73.26l-3.51-.06c1.18,0,2.14-1.85,2.14-4.15s-.87-4-2-4.14h1.11l2.43,0h.23C28.33,130.59,28.84,132.41,28.84,134Z"/><path class="cls-1" d="M27.41,124.85l-.17,3.86h-3v-5.79S27.25,122.12,27.41,124.85Z"/><polygon class="cls-2" points="26.98 129.77 26.98 129.84 24.55 129.82 24.55 129.77 24.55 128.72 24.55 128.71 26.98 128.71 26.98 128.72 26.98 129.77"/><path class="cls-2" d="M23.44,129.81c1.11.16,2,1.95,2,4.14s-1,4.15-2.14,4.15-2.14-1.85-2.14-4.15.88-4,2-4.14Z"/><path class="cls-1" d="M20.09,33.63l-.15,0-2.06-.08a.78.78,0,0,1-.22,0l-11.52-3a1,1,0,0,0-1.28.91C4.74,32.89,4.78,36,5.52,43c1.31,12.18,1.9,15.74,2,16.07v0L8,63.33v0H5.79V63.3L5,56.24a.09.09,0,0,1,0-.05c-.06-.32-.65-3.89-2-16.08-.43-4-.62-6.78-.68-8.65a3.12,3.12,0,0,1,3.9-3.13l8.92,2.3c.07,0,2.86.75,2.94.75l1.79.06h.06C20,32.21,20,32.94,20.09,33.63Z"/><path class="cls-2" d="M13.35,79.14l3.33,6.36c-2.83,5.16-5.53.1-5.53.1l.53-6.33h.2l1.23-.1Z"/><path class="cls-1" d="M12.52,72.93a1,1,0,0,1,.11,1.39,1.15,1.15,0,0,1-.9.4,1.21,1.21,0,0,1-.38-.06c-1.47-.44-5.28-1.61-7.13-2.12v-1H8.49v0Z"/><path class="cls-2" d="M12.15,132.68v2.8a2.59,2.59,0,0,1-2.59,2.59H9.09a2.59,2.59,0,0,1-2.59-2.59v-2.8a2.55,2.55,0,0,1,1-2,2.59,2.59,0,0,1,1.62-.57h.47a1.84,1.84,0,0,1,.33,0A2.58,2.58,0,0,1,12.15,132.68Z"/><path class="cls-2" d="M9.89,128.7v1.42a1.84,1.84,0,0,0-.33,0H9.09a2.59,2.59,0,0,0-1.62.57l-.07-.09V128.7Z"/><path class="cls-3" d="M16.37,63.32a20.77,20.77,0,0,1,.33-4.48,21.63,21.63,0,0,1,1.64-5.11"/><path class="cls-3" d="M92.22,18.15,22,17.89a29.81,29.81,0,0,1-.12-7c.32-2.94.51-4.68,1.76-6.39C25.5,2,28.35,1.23,30.39.67A17.16,17.16,0,0,1,35.9.1H80S92.56-1,92.47,10.74c0,1.89,0,4.44-.06,7.41,0,3.69-.09,8.05-.17,12.67"/><path class="cls-3" d="M80.36,36l-59.91-.08a20.13,20.13,0,0,1-.36-2.29c-.08-.69-.14-1.42-.18-2.2-.05-1.19-.06-2.47,0-3.77A30.54,30.54,0,0,1,22,17.89"/><polyline class="cls-3" points="92.06 36.01 82.5 36 82.48 36"/><path class="cls-3" d="M82.58,53.74H18.34a28.57,28.57,0,0,1-.12-11,26,26,0,0,1,2.23-6.77"/><line class="cls-3" x1="91.41" y1="53.74" x2="84.57" y2="53.74"/><path class="cls-3" d="M19.94,33.65l-2.06-.08a.78.78,0,0,1-.22,0l-11.52-3a1,1,0,0,0-1.28.91C4.74,32.89,4.78,36,5.52,43c1.31,12.18,1.9,15.74,2,16.07v0L8,63.33"/><path class="cls-3" d="M19.85,31.44l-1.79-.06c-.08,0-2.87-.73-2.94-.75L6.2,28.33a3.12,3.12,0,0,0-3.9,3.13c.06,1.87.25,4.63.68,8.65,1.31,12.19,1.9,15.76,2,16.08a.09.09,0,0,0,0,.05l.84,7.06"/><polyline class="cls-3" points="92.66 33.29 92.2 33.15 83.07 30.3"/><path class="cls-3" d="M83.48,29.73s-.28,0-.54.5A4.21,4.21,0,0,0,82.51,32a24.17,24.17,0,0,0,0,4.05c.12,1.78.39,4.32.89,8.41.3,2.44.72,5.8,1.17,9.33.6,4.67,1.24,9.65,1.71,13.27.32,2.4.55,4.2.64,4.92,0,.21,0,.33,0,.33s1,3.19-4.52,2.69l-7.26-2.06-2.64-.74a37.09,37.09,0,0,0-6.31-.57l-22.47,0-35.27,0H4.07"/><path class="cls-3" d="M86.3,67a5.31,5.31,0,0,1,1.42.64,9.86,9.86,0,0,1,2.5,2.27,144.38,144.38,0,0,0,1.36-16.16C91.84,48.22,92,42,92.14,36c0-.76,0-1.53,0-2.29,0-.19,0-.37,0-.56"/><path class="cls-3" d="M81.76,72.84c-1-.28-2.21-.82-4.3-1.47a33.17,33.17,0,0,0-9.31-1.72H3.22l-.33,0A3.15,3.15,0,0,1,.07,66.5a3.16,3.16,0,0,1,3.15-3.15h65s6,.35,8.89,2.55c2,1.53,4.55.73,7.14.83"/><path class="cls-3" d="M84.22,66.73l.72,5.7,0,.3a5.39,5.39,0,0,1-3.21.11"/><line class="cls-3" x1="84.22" y1="66.7" x2="84.22" y2="66.73"/><path class="cls-3" d="M92.29,33.72s3.4.28,1.89-2.28l-1.94-.61L84,28.22s-2.27-1-3,1a10.75,10.75,0,0,0-.44,1.67A16.33,16.33,0,0,0,80.36,36v0l2.23,17.74,1.63,13"/><path class="cls-3" d="M2.88,69.65s-1.26.18-1.27,1.15c0,.7.22,1.1,2.11,1.6l.5.14c1.85.51,5.66,1.68,7.13,2.12a1.21,1.21,0,0,0,.38.06,1.15,1.15,0,0,0,.9-.4,1,1,0,0,0-.11-1.39l-4-1.36"/><path class="cls-3" d="M86.9,71.93h0a6.63,6.63,0,0,0,3.31-2"/><path class="cls-3" d="M81.76,72.84h0a26.61,26.61,0,0,0,3.14-.41"/><polyline class="cls-3" points="48.35 72.93 51.69 72.93 75.17 72.93"/><line class="cls-3" x1="12.52" y1="72.93" x2="38.75" y2="72.93"/><path class="cls-3" d="M48.35,80.67V72.45a20.32,20.32,0,0,0-4.59-.5,24.56,24.56,0,0,0-5,.5v8.22A36.92,36.92,0,0,1,48.35,80.67Z"/><path class="cls-3" d="M38.76,80.67a15.92,15.92,0,0,0,9.59,0"/><polyline class="cls-3" points="51.69 72.94 51.69 77.45 50.79 79.08 49.42 79.08 48.38 79.08"/><line class="cls-3" x1="45.15" y1="81.36" x2="45.15" y2="92.29"/><line class="cls-3" x1="49.42" y1="79.15" x2="49.42" y2="92.29"/><polyline class="cls-3" points="43.67 107.56 43.67 107.55 43.67 92.38 45.15 92.38 49.42 92.38 50.77 92.38 50.77 107.55 50.77 107.56"/><polyline class="cls-3" points="52.6 111.08 52.6 111.06 52.6 110.22 52.6 109.53 51.67 107.55 50.77 107.55 43.67 107.55 42.9 107.55 41.73 109.55 41.73 110.12 41.73 111.61"/><path class="cls-3" d="M13.11,79.16l.24,0,3.33,6.36c-2.83,5.16-5.53.1-5.53.1l.53-6.33h.2Z"/><path class="cls-3" d="M11.87,79.22s-1.2-2.89.24-3.92a1.74,1.74,0,0,1,.66-.29c2.39-.56,25.35,0,26,0h0"/><path class="cls-3" d="M13.11,79.16s-1.29-2.73.7-2.73h25"/><polyline class="cls-3" points="42.4 117.48 42.43 117.54 42.82 118.21 43.71 118.21 47.38 118.21 50.72 118.21 51.59 118.21 52.23 116.98"/><polyline class="cls-3" points="43.71 118.18 43.71 118.21 43.71 119.58 43.91 119.58 47.38 119.58 50.72 119.58 50.72 118.25"/><path class="cls-3" d="M27.41,124.85l15-7.31,3.37-1.63v-4.24a1.57,1.57,0,0,0-2-1.36l-2.06,1.33-12.08,7.78-5.45,3.5v5.79h3Z"/><path class="cls-3" d="M24.22,122.92s3-.8,3.19,1.93"/><path class="cls-3" d="M47.38,119.54v0l-.78,4.74c-1.88,2.07-3.47-.26-3.47-.26l.77-4.46"/><polyline class="cls-3" points="43.13 124.05 43.31 128.72 43.7 128.72 46.07 128.72 46.31 128.72 46.6 124.31"/><polyline class="cls-3" points="41.74 110.12 41.73 110.12 7.4 122.74 7.4 128.7 9.89 128.7 10.06 128.7 10.06 125.18 29.65 119.39"/><path class="cls-3" d="M49.43,115.72l2.82,1.22,18.5,8v3.76h2.94l0-6-2.19-1.21L52.61,111.06l-1.44-.8s-2-.81-1.8,2.7a23.85,23.85,0,0,1,.06,2.76"/><path class="cls-3" d="M49.43,115.72c0,.13-.06,0-.06,0Z"/><polyline class="cls-3" points="52.61 110.22 85.55 122.74 85.55 128.77 85.4 128.77 83.03 128.77 82.89 128.77 82.89 125.1 71.46 121.5"/><path class="cls-4" d="M83.47,129.81c1.11.16,2,1.95,2,4.14s-1,4.15-2.14,4.15-2.15-1.85-2.15-4.15.89-4,2-4.14h.3Z"/><path class="cls-4" d="M87.25,129.84c1.11.75,1.63,2.57,1.63,4.18a7.47,7.47,0,0,1-.11,1.26"/><path class="cls-4" d="M83.32,138.1l3.51.06a1.07,1.07,0,0,0,.73-.26,4.56,4.56,0,0,0,1.21-2.62"/><path class="cls-3" d="M50.58,134a3.36,3.36,0,1,1-3.36-3.51A3.43,3.43,0,0,1,50.58,134Z"/><path class="cls-3" d="M50.1,131a4.34,4.34,0,0,1,1.2,3,4.08,4.08,0,1,1-8.15,0,4.39,4.39,0,0,1,.6-2.22,4.1,4.1,0,0,1,2.32-1.87,4,4,0,0,1,4,1.08"/><path class="cls-3" d="M74.48,134a3.36,3.36,0,1,1-3.35-3.51A3.43,3.43,0,0,1,74.48,134Z"/><path class="cls-3" d="M74,131a4.38,4.38,0,0,1,1.19,3,4.08,4.08,0,1,1-4.07-4.26h.1a3.9,3.9,0,0,1,2.34.86A4,4,0,0,1,74,131"/><path class="cls-4" d="M9.89,130.12a2.58,2.58,0,0,1,2.26,2.56v2.8a2.59,2.59,0,0,1-2.59,2.59H9.09a2.59,2.59,0,0,1-2.59-2.59v-2.8a2.55,2.55,0,0,1,1-2,2.59,2.59,0,0,1,1.62-.57h.47A1.84,1.84,0,0,1,9.89,130.12Z"/><line class="cls-4" x1="7.4" y1="128.7" x2="7.4" y2="130.57"/><line class="cls-4" x1="43.7" y1="128.77" x2="43.7" y2="131.74"/><line class="cls-4" x1="46.07" y1="128.77" x2="46.07" y2="129.9"/><line class="cls-4" x1="71.23" y1="128.77" x2="71.23" y2="129.71"/><line class="cls-4" x1="73.59" y1="128.77" x2="73.59" y2="130.55"/><polyline class="cls-4" points="83.03 128.77 83.03 129.81 83.17 129.81 83.47 129.81 85.4 129.82 87.25 129.84"/><path class="cls-4" d="M23.44,129.81c1.11.16,2,1.95,2,4.14s-1,4.15-2.14,4.15-2.14-1.85-2.14-4.15.88-4,2-4.14h.3Z"/><path class="cls-4" d="M27.21,129.84c1.12.75,1.63,2.57,1.63,4.18a8.68,8.68,0,0,1-.1,1.26"/><path class="cls-4" d="M23.28,138.1l3.51.06a1.07,1.07,0,0,0,.73-.26,4.56,4.56,0,0,0,1.22-2.62"/><polyline class="cls-4" points="22.99 129.81 23.14 129.81 23.44 129.81 24.55 129.82 26.98 129.84 27.21 129.84"/><line class="cls-4" x1="85.4" y1="128.77" x2="85.4" y2="129.81"/><line class="cls-4" x1="9.89" y1="128.7" x2="9.89" y2="130.07"/><line class="cls-4" x1="24.55" y1="128.72" x2="24.55" y2="129.77"/><line class="cls-4" x1="26.98" y1="128.72" x2="26.98" y2="129.77"/></g></g></g></svg>