<svg xmlns="http://www.w3.org/2000/svg" viewBox="0 0 36.54 27.76"><defs><style>.cls-1{fill:#b57460;}.cls-2{fill:#dbb0ab;}.cls-3{fill:#fff;}.cls-4{fill:none;stroke:#000;stroke-linecap:round;stroke-linejoin:round;stroke-width:0.14px;}</style></defs><g id="Capa_2" data-name="Capa 2"><g id="Office_Furniture_color" data-name="Office Furniture color"><g id="Photo_frame" data-name="Photo frame"><polygon class="cls-1" points="36.47 0.07 36.47 26.06 11.05 26.06 12.39 24.71 12.42 24.68 18.01 24.68 18.17 25.42 19.14 25.22 19.03 24.68 34.86 24.68 34.86 11.5 35.69 11.65 35.87 10.68 34.86 10.49 34.86 10.46 34.86 1.59 20.41 1.59 20.47 1.26 19.49 1.07 19.39 1.59 1.8 1.59 1.8 10.47 1.31 10.47 1.31 11.48 1.8 11.48 1.8 20.28 1.18 20.69 1.18 26.06 1.12 26.06 0.07 26.06 0.07 0.07 36.47 0.07"/><polygon class="cls-1" points="35.87 10.68 35.69 11.65 34.86 11.5 34.86 11.44 34.81 11.49 33.7 11.28 33.89 10.3 34.86 10.49 35.87 10.68"/><polygon class="cls-2" points="34.86 11.5 34.86 24.68 19.03 24.68 19.03 24.65 34.81 11.49 34.86 11.5"/><polygon class="cls-3" points="34.86 11.44 34.86 11.5 34.81 11.49 34.86 11.44"/><polygon class="cls-2" points="34.86 10.46 34.86 10.49 33.89 10.3 33.7 11.28 34.81 11.49 19.03 24.65 18.73 23.25 17.77 23.45 18.01 24.68 12.42 24.68 23.64 13.33 20.48 8.18 1.82 20.28 1.8 20.28 1.8 11.48 3.33 11.48 3.33 10.47 1.85 10.47 19.38 1.6 19.11 3.06 20.09 3.24 20.39 1.62 34.86 10.46"/><polygon class="cls-2" points="34.86 1.59 34.86 10.46 20.39 1.62 20.41 1.59 34.86 1.59"/><polygon class="cls-1" points="12.42 24.68 12.39 24.71 1.82 20.28 20.48 8.18 23.64 13.33 12.42 24.68"/><polygon class="cls-1" points="19.39 1.59 19.49 1.07 20.47 1.26 20.41 1.59 20.36 1.59 20.39 1.62 20.09 3.24 19.11 3.06 19.38 1.6 19.39 1.59"/><polygon class="cls-3" points="20.41 1.59 20.39 1.62 20.36 1.59 20.41 1.59"/><polygon class="cls-2" points="19.39 1.59 19.38 1.6 1.85 10.47 1.8 10.47 1.8 1.59 19.39 1.59"/><polygon class="cls-1" points="18.01 24.68 17.77 23.45 18.73 23.25 19.03 24.65 18.99 24.68 19.03 24.68 19.14 25.22 18.17 25.42 18.01 24.68"/><polygon class="cls-3" points="19.03 24.65 19.03 24.68 18.99 24.68 19.03 24.65"/><polygon class="cls-1" points="12.39 24.71 11.05 26.06 11.01 26.06 1.18 26.06 1.18 20.69 1.8 20.28 1.82 20.28 12.39 24.71"/><polygon class="cls-1" points="11.05 26.06 9.44 27.68 1.18 27.68 1.18 26.06 11.01 26.06 11.05 26.06"/><polygon class="cls-1" points="1.8 11.48 1.31 11.48 1.31 10.47 1.8 10.47 1.8 10.5 1.85 10.47 3.33 10.47 3.33 11.48 1.8 11.48"/><polygon class="cls-3" points="1.85 10.47 1.8 10.5 1.8 10.47 1.85 10.47"/><polyline class="cls-4" points="1.12 26.06 0.07 26.06 0.07 0.07 36.47 0.07 36.47 26.06 11.05 26.06"/><line class="cls-4" x1="18.01" y1="24.68" x2="12.42" y2="24.68"/><polyline class="cls-4" points="34.86 11.5 34.86 24.68 19.03 24.68"/><polyline class="cls-4" points="20.41 1.59 34.86 1.59 34.86 10.46"/><polyline class="cls-4" points="1.8 10.47 1.8 1.59 19.39 1.59"/><line class="cls-4" x1="1.8" y1="20.28" x2="1.8" y2="11.48"/><polyline class="cls-4" points="12.39 24.71 11.05 26.06 9.44 27.68 1.18 27.68 1.18 26.06 1.18 20.69 1.8 20.28 1.82 20.28"/><polyline class="cls-4" points="1.82 20.28 20.48 8.18 23.64 13.33 12.42 24.68 12.39 24.71"/><polygon class="cls-4" points="1.85 10.47 3.33 10.47 3.33 11.48 1.8 11.48 1.31 11.48 1.31 10.47 1.8 10.47 1.85 10.47"/><polygon class="cls-4" points="34.86 10.49 35.87 10.68 35.69 11.65 34.86 11.5 34.81 11.49 33.7 11.28 33.89 10.3 34.86 10.49"/><polygon class="cls-4" points="19.39 1.59 19.49 1.07 20.47 1.26 20.41 1.59 20.39 1.62 20.09 3.24 19.11 3.06 19.38 1.6 19.39 1.59"/><polygon class="cls-4" points="18.01 24.68 17.77 23.45 18.73 23.25 19.03 24.65 19.03 24.68 19.14 25.22 18.17 25.42 18.01 24.68"/></g></g></g></svg>