<svg xmlns="http://www.w3.org/2000/svg" viewBox="0 0 47.99 21.72"><defs><style>.cls-1{fill:#ef8860;}.cls-2{fill:none;stroke:#000;stroke-linecap:round;stroke-linejoin:round;stroke-width:0.14px;}</style></defs><g id="Capa_2" data-name="Capa 2"><g id="Office_Furniture_color" data-name="Office Furniture color"><g id="Tall_storage_baskets" data-name="Tall storage baskets"><path class="cls-1" d="M47.92,1v19.8a.89.89,0,0,1-.89.89H34a.89.89,0,0,1-.89-.89V1A.89.89,0,0,1,34,.07H47A.89.89,0,0,1,47.92,1ZM44.34,4V3A.34.34,0,0,0,44,2.61H36.42a.35.35,0,0,0-.35.34V4a.35.35,0,0,0,.35.35H44A.35.35,0,0,0,44.34,4Z"/><path class="cls-1" d="M31.05,1v19.8a.89.89,0,0,1-.9.89h-13a.89.89,0,0,1-.89-.89V1A.89.89,0,0,1,17.1.07h13A.89.89,0,0,1,31.05,1ZM27.46,4V3a.34.34,0,0,0-.34-.34H19.54A.34.34,0,0,0,19.2,3V4a.35.35,0,0,0,.34.35h7.58A.35.35,0,0,0,27.46,4Z"/><path class="cls-1" d="M14.91,1v19.8a.89.89,0,0,1-.89.89H1a.89.89,0,0,1-.89-.89V1A.89.89,0,0,1,1,.07H14A.89.89,0,0,1,14.91,1ZM11.33,4V3A.35.35,0,0,0,11,2.61H3.4A.34.34,0,0,0,3.06,3V4a.35.35,0,0,0,.34.35H11A.35.35,0,0,0,11.33,4Z"/><rect class="cls-2" x="0.07" y="0.07" width="14.84" height="21.58" rx="0.89"/><path class="cls-2" d="M11,4.32H3.4A.35.35,0,0,1,3.06,4V3a.34.34,0,0,1,.34-.34H11a.35.35,0,0,1,.35.34V4A.35.35,0,0,1,11,4.32Z"/><path class="cls-2" d="M30.15,21.65h-13a.89.89,0,0,1-.89-.89V1A.89.89,0,0,1,17.1.07h13a.89.89,0,0,1,.9.89v19.8A.89.89,0,0,1,30.15,21.65Z"/><path class="cls-2" d="M27.12,4.32H19.54A.35.35,0,0,1,19.2,4V3a.34.34,0,0,1,.34-.34h7.58a.34.34,0,0,1,.34.34V4A.35.35,0,0,1,27.12,4.32Z"/><rect class="cls-2" x="33.09" y="0.07" width="14.83" height="21.58" rx="0.89"/><path class="cls-2" d="M44,4.32H36.42A.35.35,0,0,1,36.07,4V3a.35.35,0,0,1,.35-.34H44a.34.34,0,0,1,.34.34V4A.35.35,0,0,1,44,4.32Z"/></g></g></g></svg>