<svg xmlns="http://www.w3.org/2000/svg" viewBox="0 0 15.91 11.15"><defs><style>.cls-1{fill:#fad570;}.cls-2{fill:none;stroke:#000;stroke-linecap:round;stroke-linejoin:round;stroke-width:0.09px;}</style></defs><g id="Capa_2" data-name="Capa 2"><g id="Office_Furniture_color" data-name="Office Furniture color"><g id="Yellow_coffee_mug" data-name="Yellow coffee mug"><path class="cls-1" d="M15.27,2.78c.64,1.12,1,3,0,4.07a2.07,2.07,0,0,1-1,.59,2.86,2.86,0,0,1-1.4-.1A4.83,4.83,0,0,1,12,7c0-.32,0-.68,0-1.06h0c3,2.49,3.63-1.66,2.39-3.12s-2.44.21-2.58.39c-.05-.37-.11-.72-.17-1a2.89,2.89,0,0,1,1.14-.52,2.22,2.22,0,0,1,1.5.1A2.32,2.32,0,0,1,15.27,2.78Z"/><path class="cls-1" d="M11.88,3.23A22.35,22.35,0,0,1,12.06,6c0,.38,0,.74,0,1.06a5.77,5.77,0,0,1-.17,1.17,3.53,3.53,0,0,1-1.7,2.3,8.19,8.19,0,0,1-2.62.62s-4,0-4.63-.15A3.27,3.27,0,0,1,.73,9.36,8.49,8.49,0,0,1,.08,4.71,24.35,24.35,0,0,1,1,0H11a8.3,8.3,0,0,1,.57,1.74c0,.13.07.27.1.43S11.83,2.86,11.88,3.23Z"/><path class="cls-2" d="M11.71,2.21c0-.16-.07-.3-.1-.43A8.3,8.3,0,0,0,11,0H1a24.35,24.35,0,0,0-1,4.67A8.49,8.49,0,0,0,.73,9.36,3.27,3.27,0,0,0,2.92,11c.64.11,4.63.15,4.63.15a8.19,8.19,0,0,0,2.62-.62,3.53,3.53,0,0,0,1.7-2.3A5.77,5.77,0,0,0,12,7c0-.32,0-.68,0-1.06a22.35,22.35,0,0,0-.18-2.73C11.83,2.86,11.77,2.51,11.71,2.21Z"/><path class="cls-2" d="M11.86,3.25l0,0c.14-.18,1.4-1.78,2.58-.39S15.12,8.45,12.07,6"/><path class="cls-2" d="M11.71,2.21a2.89,2.89,0,0,1,1.14-.52,2.22,2.22,0,0,1,1.5.1,2.32,2.32,0,0,1,.92,1c.64,1.12,1,3,0,4.07a2.07,2.07,0,0,1-1,.59,2.86,2.86,0,0,1-1.4-.1A4.83,4.83,0,0,1,12,7h0"/></g></g></g></svg>